<svg width="901" height="334" viewBox="0 0 901 334" fill="none" xmlns="http://www.w3.org/2000/svg">
<path d="M214.185 95.4V237H169.785V95.4H214.185ZM327.438 260L313.838 237.6C310.772 238.133 307.238 238.4 303.238 238.4C289.905 238.4 277.638 235.267 266.438 229C255.372 222.733 246.572 214.067 240.038 203C233.505 191.933 230.238 179.467 230.238 165.6C230.238 151.733 233.505 139.267 240.038 128.2C246.572 117.133 255.372 108.533 266.438 102.4C277.638 96.1333 289.905 93 303.238 93C316.572 93 328.772 96.1333 339.838 102.4C350.905 108.533 359.638 117.133 366.038 128.2C372.572 139.267 375.838 151.733 375.838 165.6C375.838 176.933 373.638 187.4 369.238 197C364.838 206.467 358.772 214.533 351.038 221.2L379.838 260H327.438ZM275.438 165.6C275.438 175.2 277.838 182.867 282.638 188.6C287.438 194.2 294.305 197 303.238 197C312.038 197 318.838 194.2 323.638 188.6C328.438 182.867 330.838 175.2 330.838 165.6C330.838 155.867 328.438 148.2 323.638 142.6C318.838 136.867 312.038 134 303.238 134C294.305 134 287.438 136.867 282.638 142.6C277.838 148.2 275.438 155.867 275.438 165.6Z" fill="#011435"/>
<path d="M529.055 125.4C537.589 125.4 545.189 127.2 551.855 130.8C558.522 134.267 563.789 139.533 567.655 146.6C571.522 153.667 573.455 162.267 573.455 172.4V237H555.455V175C555.455 164.067 552.722 155.733 547.255 150C541.922 144.133 534.655 141.2 525.455 141.2C515.989 141.2 508.455 144.267 502.855 150.4C497.255 156.4 494.455 165.133 494.455 176.6V237H476.455V175C476.455 164.067 473.722 155.733 468.255 150C462.922 144.133 455.655 141.2 446.455 141.2C436.989 141.2 429.455 144.267 423.855 150.4C418.255 156.4 415.455 165.133 415.455 176.6V237H397.255V127.4H415.455V143.2C419.055 137.467 423.855 133.067 429.855 130C435.989 126.933 442.722 125.4 450.055 125.4C459.255 125.4 467.389 127.467 474.455 131.6C481.522 135.733 486.789 141.8 490.255 149.8C493.322 142.067 498.389 136.067 505.455 131.8C512.522 127.533 520.389 125.4 529.055 125.4ZM612.71 109.6C609.243 109.6 606.31 108.4 603.91 106C601.51 103.6 600.31 100.667 600.31 97.2C600.31 93.7333 601.51 90.8 603.91 88.4C606.31 86 609.243 84.8 612.71 84.8C616.043 84.8 618.843 86 621.11 88.4C623.51 90.8 624.71 93.7333 624.71 97.2C624.71 100.667 623.51 103.6 621.11 106C618.843 108.4 616.043 109.6 612.71 109.6ZM621.51 127.4V237H603.31V127.4H621.51ZM705.929 125.4C719.262 125.4 730.062 129.467 738.329 137.6C746.596 145.6 750.729 157.2 750.729 172.4V237H732.729V175C732.729 164.067 729.996 155.733 724.529 150C719.062 144.133 711.596 141.2 702.129 141.2C692.529 141.2 684.862 144.2 679.129 150.2C673.529 156.2 670.729 164.933 670.729 176.4V237H652.529V127.4H670.729V143C674.329 137.4 679.196 133.067 685.329 130C691.596 126.933 698.462 125.4 705.929 125.4ZM773.659 181.8C773.659 170.6 775.925 160.8 780.459 152.4C784.992 143.867 791.192 137.267 799.059 132.6C807.059 127.933 815.992 125.6 825.859 125.6C834.392 125.6 842.325 127.6 849.659 131.6C856.992 135.467 862.592 140.6 866.459 147V89H884.859V237H866.459V216.4C862.859 222.933 857.525 228.333 850.459 232.6C843.392 236.733 835.125 238.8 825.659 238.8C815.925 238.8 807.059 236.4 799.059 231.6C791.192 226.8 784.992 220.067 780.459 211.4C775.925 202.733 773.659 192.867 773.659 181.8ZM866.459 182C866.459 173.733 864.792 166.533 861.459 160.4C858.125 154.267 853.592 149.6 847.859 146.4C842.259 143.067 836.059 141.4 829.259 141.4C822.459 141.4 816.259 143 810.659 146.2C805.059 149.4 800.592 154.067 797.259 160.2C793.925 166.333 792.259 173.533 792.259 181.8C792.259 190.2 793.925 197.533 797.259 203.8C800.592 209.933 805.059 214.667 810.659 218C816.259 221.2 822.459 222.8 829.259 222.8C836.059 222.8 842.259 221.2 847.859 218C853.592 214.667 858.125 209.933 861.459 203.8C864.792 197.533 866.459 190.267 866.459 182Z" fill="#17827E"/>
<path d="M52.875 97C41.6538 97 32.5651 105.149 30.2915 115.73C16.591 118.174 5.875 129.606 5.875 144C5.875 145.445 6.03363 146.732 6.24513 148.042C2.45575 153.611 0 160.174 0 167.5C0 178.057 5.25813 186.94 12.6665 193.385C12.1378 195.477 11.75 197.562 11.75 199.812C11.75 214.341 23.6586 226.25 38.1875 226.25H38.5576C41.9769 232.883 47.8989 238 55.8125 238C58.5533 237.99 61.2646 237.433 63.7869 236.361C66.3092 235.288 68.5916 233.722 70.5 231.755C72.4084 233.722 74.6908 235.288 77.2131 236.361C79.7354 237.433 82.4467 237.99 85.1875 238C93.107 238 99.0231 232.883 102.448 226.25H102.812C116.607 226.25 127.916 215.51 129.068 202.016H129.25C129.25 201.645 129.091 201.281 129.068 200.911C129.091 200.547 129.25 200.177 129.25 199.812C129.25 197.633 128.469 195.77 127.963 193.755C135.583 187.281 141 178.245 141 167.5C141 160.18 138.544 153.617 134.755 148.036C134.966 146.732 135.125 145.451 135.125 144C135.125 129.606 124.409 118.179 110.708 115.724C108.435 105.154 99.3462 97 88.125 97C81.075 97 74.8123 100.284 70.5 105.26C66.1877 100.29 59.925 97 52.875 97ZM52.875 108.75C59.4374 108.75 64.625 113.938 64.625 120.5V132.25C64.625 142.049 56.7995 149.875 47 149.875V161.625C53.6564 161.625 59.69 159.334 64.625 155.568V217.438C64.625 222.372 60.7475 226.25 55.8125 226.25C53.757 226.279 51.7587 225.573 50.1767 224.261C48.5947 222.948 47.5329 221.114 47.1821 219.088L46.0835 213.401L40.3906 214.318C38.2988 214.648 36.1602 214.52 34.1229 213.942C32.0856 213.364 30.1983 212.35 28.5917 210.97C26.9851 209.591 25.6976 207.878 24.8184 205.952C23.9393 204.025 23.4894 201.93 23.5 199.812C23.5 197.997 23.7938 196.299 24.4165 194.672C24.4635 194.537 24.5575 194.437 24.5986 194.302C25.501 192.063 26.9476 190.084 28.8075 188.546C30.6673 187.007 32.8817 185.956 35.25 185.489L32.8647 173.927C26.8683 175.111 21.476 178.358 17.625 183.104C13.8061 178.807 11.7132 173.249 11.75 167.5C11.74 162.217 13.556 157.092 16.8906 152.995L18.7295 150.792L18.1772 147.854C17.8514 146.594 17.6662 145.301 17.625 144C17.625 134.201 25.4505 126.375 35.25 126.375H41.125V120.5C41.125 113.938 46.3126 108.75 52.875 108.75ZM88.125 108.75C94.6874 108.75 99.875 113.938 99.875 120.5V126.375H105.75C115.549 126.375 123.375 134.201 123.375 144C123.375 145.263 123.14 146.479 122.823 147.854L122.276 150.792L124.109 152.995C127.444 157.092 129.26 162.217 129.25 167.5C129.25 174.55 126.242 180.836 121.354 185.125C117.341 181.571 112.224 179.25 106.484 179.25C100.933 179.25 95.927 181.224 91.979 184.573L99.5107 193.573C101.447 191.9 103.925 190.986 106.484 191C112.154 191 116.672 195.248 117.318 200.729C116.836 208.466 110.661 214.5 102.812 214.5C102.284 214.5 101.637 214.476 100.609 214.318L94.9165 213.396L93.8179 219.094C93.4658 221.119 92.4035 222.951 90.8216 224.263C89.2398 225.574 87.2421 226.279 85.1875 226.25C80.2525 226.25 76.375 222.372 76.375 217.438V155.568C81.4158 159.485 87.6159 161.616 94 161.625V149.875C84.2005 149.875 76.375 142.049 76.375 132.25V120.5C76.375 113.938 81.5626 108.75 88.125 108.75Z" fill="#011435"/>
</svg>
